<svg id="Layer_1" data-name="Layer 1" xmlns="http://www.w3.org/2000/svg" viewBox="0 0 293.41 228.14"><defs><style>.cls-1{fill:#fbfbfb;}.cls-2{fill:#3b0000;}.cls-3{opacity:0.8;}.cls-4{fill:#fff;}.cls-11,.cls-5{opacity:0.3;}.cls-6{fill:#543036;}.cls-7{fill:#ae7c5b;}.cls-8{opacity:0.6;}.cls-9{fill:#fed5ab;}.cls-10,.cls-11{fill:#1e0202;}.cls-12,.cls-15{fill:none;stroke:#1e0202;stroke-miterlimit:10;}.cls-12{stroke-width:44px;}.cls-13,.cls-21{fill:#7c593d;}.cls-14{opacity:0.35;}.cls-15{stroke-linecap:round;stroke-width:33.85px;}.cls-16{fill:#ff6c6c;}.cls-17{opacity:0.5;}.cls-18{fill:#982e20;}.cls-19{opacity:0.25;}.cls-20{fill:#ff6b6b;}.cls-21{opacity:0.17;}</style></defs><title>Logo zé</title><path class="cls-1" d="M238.29,115.46c0,64.54-33.74,102-72.86,112.29h0a86.74,86.74,0,0,1-13.59,2.47c-50.62,5.2-104.67-33.06-104.67-114.76,0-3.14,1.68-6.16,4.77-9v0c4.41-4,11.69-7.66,21.11-10.68,17.44-5.6,42.21-9.09,69.7-9.09,7.43,0,14.67.26,21.61.74,5.14.36,10.12.84,14.91,1.44a211.84,211.84,0,0,1,22.44,3.95C224,98.08,238.29,106.27,238.29,115.46Z" transform="translate(-10.8 -4.93)"/><path class="cls-2" d="M142.79,230.9a90,90,0,0,1-60.22-23.23,101.13,101.13,0,0,1-25.74-37.34c-6.58-16.11-9.91-34.57-9.91-54.87,0-3.13,1.61-6.2,4.81-9.13l0,0c4.34-4,11.67-7.69,21.19-10.74,18.29-5.87,43.07-9.1,69.77-9.1,7.33,0,14.61.25,21.63.74,5,.35,10.06.84,14.92,1.44a213.51,213.51,0,0,1,22.46,3.95c23.38,5.53,36.78,13.86,36.78,22.86,0,30.09-7.53,56.58-21.79,76.61-12.84,18-30.54,30.43-51.21,35.88l-.07,0a89,89,0,0,1-13.61,2.47A88.08,88.08,0,0,1,142.79,230.9ZM52.08,106.6l0,0c-3.11,2.84-4.69,5.81-4.69,8.82,0,49.45,19.31,77.26,35.51,91.89A89.51,89.51,0,0,0,151.78,230a88.51,88.51,0,0,0,13.55-2.47h.07c35.14-9.28,72.67-43.58,72.67-112.07,0-8.78-13.29-17-36.45-22.43a215.3,215.3,0,0,0-22.42-4c-4.85-.6-9.86-1.08-14.89-1.43-7-.49-14.28-.74-21.6-.74-26.27,0-51.65,3.31-69.63,9.07C63.63,99,56.37,102.69,52.08,106.6Z" transform="translate(-10.8 -4.93)"/><g class="cls-3"><path class="cls-4" d="M238.29,115.46c0,59.59-28.76,96.06-64,109.43,33.25-14.61,59.73-50.51,59.73-107.69,0-15.9-42.79-28.77-95.57-28.77-30.41,0-57.5,4.27-75,10.93,17.17-7.64,46.25-12.67,79.22-12.67C195.49,86.69,238.29,99.57,238.29,115.46Z" transform="translate(-10.8 -4.93)"/></g><g class="cls-5"><path class="cls-6" d="M223.74,118.38c-.63,2.4-2.65,4.69-5.84,6.82-4.94-3.31-12.7-6.21-22.45-8.5-4-.93-8.27-1.75-12.85-2.46-5.66-.88-11.75-1.57-18.15-2.06-6.92-.53-14.21-.81-21.74-.81-27.91,0-52.53,3.86-67.16,9.74a43.66,43.66,0,0,0-8,4.09h0c-3.18-2.12-5.2-4.42-5.83-6.81.86-3.25,4.27-6.31,9.68-9,13.79-6.92,40.57-11.61,71.35-11.61,7.33,0,14.44.26,21.2.76,5.35.4,10.48.94,15.33,1.61,5.52.76,10.67,1.69,15.38,2.77C211.12,106.64,222.09,112.16,223.74,118.38Z" transform="translate(-10.8 -4.93)"/><path class="cls-2" d="M217.9,125.46l-.12-.08c-4.85-3.24-12.58-6.17-22.38-8.47-4-.92-8.28-1.75-12.83-2.45-5.69-.89-11.79-1.58-18.14-2.06-7-.54-14.32-.81-21.72-.81-26.86,0-51.94,3.64-67.08,9.72a44.16,44.16,0,0,0-8,4.07l-.06,0h-.16l0,0c-3.28-2.19-5.27-4.52-5.9-6.92l0-.06,0,0c.86-3.26,4.16-6.34,9.8-9.17,14.29-7.17,41.67-11.63,71.44-11.63,7.19,0,14.32.26,21.21.76,5.31.4,10.47.94,15.35,1.62,5.49.75,10.67,1.68,15.4,2.77,17.25,3.92,27.65,9.48,29.28,15.65v.11c-.63,2.4-2.63,4.73-5.93,6.94Zm-156-7.08c.61,2.25,2.5,4.45,5.61,6.55a44.45,44.45,0,0,1,8-4c15.19-6.11,40.33-9.75,67.24-9.75,7.41,0,14.73.27,21.76.8,6.36.48,12.47,1.18,18.16,2.07,4.57.7,8.9,1.53,12.87,2.46,9.77,2.29,17.51,5.21,22.4,8.44,3.11-2.1,5-4.3,5.61-6.55-1.61-5.89-12.15-11.46-28.93-15.28-4.72-1.08-9.89-2-15.37-2.76-4.87-.68-10-1.22-15.32-1.61-6.88-.51-14-.76-21.18-.76-29.71,0-57,4.44-71.25,11.58C66,112.3,62.76,115.28,61.91,118.38Z" transform="translate(-10.8 -4.93)"/></g><path class="cls-1" d="M22.57,173.23c.6.85,1.21,1.68,1.84,2.47A57,57,0,0,0,37.29,188l.34.23a49.3,49.3,0,0,0,33,8l1.11-.12-1-1.42L60.92,180a26,26,0,0,1-13.62-3.79A34.75,34.75,0,0,1,39.6,170c-12-12.7-15.63-33.55-1-38.18a22.69,22.69,0,0,1,7.82-.91l-.82-15.56a28.54,28.54,0,0,0-11.94,1C15.56,121.88,4.1,145.32,22.57,173.23Z" transform="translate(-10.8 -4.93)"/><path class="cls-2" d="M37.51,188.36l-.35-.23a57.56,57.56,0,0,1-12.92-12.29c-.63-.8-1.25-1.63-1.85-2.48h0c-9-13.62-11.69-27.52-7.52-39.14a28.72,28.72,0,0,1,30.78-19.09l.19,0,.84,16h-.24a23.07,23.07,0,0,0-7.75.9,12.71,12.71,0,0,0-8.86,9.27c-2.16,8.33,1.92,20.08,9.93,28.56A34.73,34.73,0,0,0,47.41,176a25.72,25.72,0,0,0,13.51,3.76H61L72,195.94l.16.3-.36,0c-.36,0-.71.09-1.07.12-1.84.19-3.66.28-5.47.29A49.24,49.24,0,0,1,37.51,188.36Zm23.29-8.14a26,26,0,0,1-13.61-3.82,35.11,35.11,0,0,1-7.75-6.26c-8.1-8.59-12.23-20.5-10-29a13.1,13.1,0,0,1,9.15-9.57,23.11,23.11,0,0,1,7.66-.93l-.8-15.14a28.3,28.3,0,0,0-30.14,18.83c-4.12,11.48-1.47,25.24,7.47,38.75.6.84,1.21,1.67,1.83,2.46a57.18,57.18,0,0,0,12.83,12.2l.34.23a49.26,49.26,0,0,0,32.9,8l.74-.07Z" transform="translate(-10.8 -4.93)"/><g class="cls-5"><path class="cls-2" d="M33.94,170a34.15,34.15,0,0,0,9.51,7.2,10.36,10.36,0,0,1,4.1,3.55c4.2,6.49-3.22,11.78-9.92,7.43A48.49,48.49,0,0,0,62.4,196.4h0l.71,0,.7,0h.71c1.35,0,2.71,0,4.08-.1l2.11-.18,1.11-.12-1-1.42L60.92,180q-.73,0-1.47,0l-.47,0-.49,0-.32,0-.33,0c-.26,0-.51-.06-.77-.1l-.7-.11c-.59-.1-1.17-.22-1.74-.37l-.35-.09-.5-.14-.33-.1c-.21-.06-.41-.12-.62-.2l-.68-.23c-.32-.11-.63-.23-.94-.36-.52-.2-1-.43-1.53-.67-.32-.15-.63-.3-.93-.46l-.64-.34-.08,0c-.24-.14-.49-.27-.73-.42A34.75,34.75,0,0,1,39.6,170c-12-12.7-15.63-33.55-1-38.18a18.13,18.13,0,0,1,1.93-.5c-2.72-.07-5.82-.06-7.59.51C18.32,136.45,22,157.29,33.94,170Z" transform="translate(-10.8 -4.93)"/></g><g class="cls-3"><path class="cls-4" d="M22.6,172.05c.6.85,1.21,1.68,1.83,2.47A61.68,61.68,0,0,0,29,179.76c-.69-.8-1.36-1.62-2-2.47s-1.23-1.63-1.83-2.48c-18.43-27.93-6.93-51.36,11.2-56.87a28.46,28.46,0,0,1,9.55-1.19l-.13-2.56a28.71,28.71,0,0,0-11.94,1C15.66,120.68,4.17,144.11,22.6,172.05Z" transform="translate(-10.8 -4.93)"/></g><ellipse class="cls-2" cx="131.91" cy="120.26" rx="75.19" ry="13.82"/><path class="cls-7" d="M142.71,139.24c-33.15,0-62.72-5.44-75.32-13.86l-.27-.18.27-.19c12.61-8.41,42.17-13.85,75.32-13.85S205.42,116.6,218,125l.28.19-.28.18C205.43,133.8,175.86,139.24,142.71,139.24Zm-74.8-14c12.69,8.27,42,13.6,74.8,13.6s62.11-5.33,74.8-13.6c-12.69-8.28-42-13.61-74.8-13.61S80.6,116.92,67.91,125.2Z" transform="translate(-10.8 -4.93)"/><path class="cls-2" d="M217.9,126.55a1.36,1.36,0,0,1-.75-.22c-12.37-8.26-41.58-13.6-74.44-13.6s-62.08,5.34-74.44,13.6a1.36,1.36,0,0,1-1.51-2.26c12.78-8.54,42.59-14.06,76-14.06s63.17,5.52,75.95,14.06a1.35,1.35,0,0,1-.76,2.48Z" transform="translate(-10.8 -4.93)"/><path class="cls-2" d="M142.71,232.05A90.42,90.42,0,0,1,76,202.81c-19.78-21.19-30.23-51.4-30.23-87.35,0-16.89,42.57-30.13,96.93-30.13s96.93,13.24,96.93,30.13c0,36-10.45,66.16-30.23,87.35A90.42,90.42,0,0,1,142.71,232.05Zm0-144c-51.07,0-94.22,12.55-94.22,27.41,0,78.24,48.84,113.87,94.22,113.87s94.22-35.63,94.22-113.87C236.93,100.6,193.78,88.05,142.71,88.05Z" transform="translate(-10.8 -4.93)"/><path class="cls-2" d="M142.71,233.07a91.49,91.49,0,0,1-67.45-29.56c-20-21.39-30.5-51.84-30.5-88,0-8.65,10.23-16.6,28.8-22.37,18.2-5.66,42.76-8.77,69.15-8.77s50.95,3.11,69.15,8.77c18.57,5.77,28.8,13.72,28.8,22.37,0,36.21-10.55,66.66-30.51,88.05A91.45,91.45,0,0,1,142.71,233.07Zm0-146.72c-26.19,0-50.53,3.08-68.55,8.68-17.65,5.49-27.37,12.74-27.37,20.43,0,35.69,10.36,65.65,30,86.66a89.7,89.7,0,0,0,131.92,0c19.6-21,30-51,30-86.66,0-7.69-9.72-14.94-27.37-20.43C193.24,89.43,168.9,86.35,142.71,86.35Zm0,144c-45.87,0-95.23-35.95-95.23-114.89,0-7.68,10.18-14.87,28.69-20.25C94.28,89.94,117.92,87,142.71,87s48.43,2.9,66.54,8.17c18.5,5.38,28.69,12.57,28.69,20.25C237.94,194.4,188.58,230.35,142.71,230.35Zm0-141.28c-24.61,0-48,2.87-66,8.09-17.3,5-27.22,11.71-27.22,18.3,0,77.54,48.31,112.86,93.2,112.86s93.2-35.32,93.2-112.86c0-6.59-9.92-13.27-27.22-18.3C190.75,91.94,167.32,89.07,142.71,89.07Z" transform="translate(-10.8 -4.93)"/><path class="cls-2" d="M142.71,140.38c-33.33,0-63.12-5.51-75.91-14l0,0c-4.41-2.94-6.64-6.16-6.64-9.57,0-8.48,13.48-14,24.79-17,15.46-4.24,36-6.57,57.81-6.57s42.35,2.33,57.81,6.57c11.31,3.1,24.79,8.57,24.79,17,0,3.41-2.24,6.63-6.65,9.58C205.88,134.86,176.07,140.38,142.71,140.38ZM68.23,124l0,0c12.36,8.25,41.58,13.59,74.44,13.59s62.08-5.34,74.44-13.59c3.61-2.42,5.44-4.88,5.44-7.32,0-10.09-32.1-20.9-79.88-20.9s-79.89,10.81-79.89,20.9C62.82,119.78,65.75,122.38,68.23,124Z" transform="translate(-10.8 -4.93)"/><g class="cls-5"><path class="cls-2" d="M155.29,229.23c3.66-.63,6.74-1.19,9-1.61-47.55-5.61-73.84-29.77-72.58-75a7.15,7.15,0,0,0-5-7c-21.85-7-31.81-14.69-35.89-21.35C55,199.21,106.74,234.22,155.29,229.23Z" transform="translate(-10.8 -4.93)"/></g><path class="cls-2" d="M65.15,197.83a56,56,0,0,0,6.79-.42,1.36,1.36,0,1,0-.33-2.7c-19.07,2.34-36.1-5.56-47.93-22.26-10.31-15.58-12-31.31-4.71-43.12a26.93,26.93,0,0,1,26.49-12.64,1.36,1.36,0,0,0,.33-2.7A29.59,29.59,0,0,0,16.66,127.9a33.86,33.86,0,0,0-4.75,20.42c.6,8.38,3.8,17,9.53,25.66C32.48,189.56,47.81,197.86,65.15,197.83Z" transform="translate(-10.8 -4.93)"/><path class="cls-2" d="M65.06,198.85a50.78,50.78,0,0,1-24.61-6.2,59,59,0,0,1-19.84-18.08c-5.84-8.83-9.1-17.62-9.71-26.18a34.89,34.89,0,0,1,4.89-21A30.62,30.62,0,0,1,45.92,113a2.38,2.38,0,0,1,1.16,4.24,2.34,2.34,0,0,1-1.75.48,25.92,25.92,0,0,0-25.5,12.17c-7.11,11.45-5.4,26.77,4.7,42,11.59,16.35,28.27,24.1,47,21.81a2.38,2.38,0,0,1,.58,4.72,58,58,0,0,1-6.92.43h-.09ZM42,114.77a28.53,28.53,0,0,0-24.43,13.67,32.85,32.85,0,0,0-4.59,19.81c.58,8.2,3.73,16.67,9.36,25.17,10.84,15.3,25.64,23.4,42.77,23.4h.09a58.12,58.12,0,0,0,6.67-.42.35.35,0,0,0,.3-.38.36.36,0,0,0-.39-.3,55.55,55.55,0,0,1-6.64.41c-16.75,0-31.57-8-42.24-23.1-10.57-16-12.29-32.07-4.75-44.23a27.94,27.94,0,0,1,27.48-13.12.37.37,0,0,0,.26-.07.35.35,0,0,0,.13-.23.34.34,0,0,0-.3-.38A29.25,29.25,0,0,0,42,114.77Z" transform="translate(-10.8 -4.93)"/><path class="cls-2" d="M60.59,181.36h.35a1.36,1.36,0,0,0,0-2.72h-.33c-11.6,0-20.79-8.77-25.56-17.07-5-8.67-6-17.86-2.68-23.41,2.48-4.11,7.34-6.15,14-5.91a1.36,1.36,0,1,0,.1-2.71c-9.79-.37-14.37,3.72-16.47,7.21-3.92,6.48-2.9,16.51,2.65,26.17C37.82,171.88,47.84,181.38,60.59,181.36Z" transform="translate(-10.8 -4.93)"/><path class="cls-2" d="M60.56,182.38c-13.19,0-23.5-9.79-28.76-18.95-5.74-10-6.75-20.41-2.64-27.2,2.25-3.73,7.09-8.09,17.38-7.71a2.38,2.38,0,0,1-.17,4.75C40,133,35.5,134.91,33.22,138.68c-3.16,5.24-2.1,14,2.7,22.39,4.59,8,13.48,16.56,24.64,16.56h.36A2.38,2.38,0,0,1,63.29,180a2.31,2.31,0,0,1-.67,1.69,2.33,2.33,0,0,1-1.67.72h-.39ZM45.3,130.53c-8.5,0-12.52,3.63-14.4,6.75-3.73,6.16-2.71,15.8,2.66,25.14,5,8.67,14.68,17.92,27,17.92h.36a.34.34,0,0,0,.24-.1.34.34,0,0,0,.1-.25.33.33,0,0,0-.33-.33h-.37c-12,0-21.53-9.08-26.41-17.58-5.16-9-6.21-18.59-2.67-24.45,2.69-4.44,7.86-6.65,15-6.39a.35.35,0,0,0,0-.69Z" transform="translate(-10.8 -4.93)"/><g class="cls-5"><path class="cls-6" d="M125.19,139.73a4,4,0,0,0-3.82,2,9.87,9.87,0,0,0-1.24,4.35,43.85,43.85,0,0,0,.4,12.32c.4,2.26,1,4.59.45,6.82s-2.62,4.32-4.87,3.88a6.19,6.19,0,0,1-4.46-4.25c-1.35-4.4-.85-9.54.29-14,.49-1.9,1.59-3.71,1.54-5.67-.2-8.22-6.6-6.92-7.4-5-1.09,2.61-.72,5.24-1,6.29-.93,3.58-7.45,3.85-6.53-4.33a16,16,0,0,0,.16-2.67c0-.89-.84-4.44-1.68-4.74" transform="translate(-10.8 -4.93)"/><path class="cls-2" d="M116.71,169.38c2.13,0,4-2,4.48-4.11a14.48,14.48,0,0,0-.28-6c0-.31-.11-.61-.16-.91a43.43,43.43,0,0,1-.4-12.26,9.72,9.72,0,0,1,1.21-4.25,3.8,3.8,0,0,1,3.59-1.9l.07-.43a4.22,4.22,0,0,0-4,2.09,10.31,10.31,0,0,0-1.28,4.44,44,44,0,0,0,.41,12.39c.05.3.11.6.16.91a14.35,14.35,0,0,1,.29,5.82c-.5,2.13-2.48,4.13-4.62,3.72a6,6,0,0,1-4.29-4.1c-1.47-4.8-.65-10.2.29-13.89a20.34,20.34,0,0,1,.66-2,10.1,10.1,0,0,0,.89-3.78c-.13-5.29-2.8-6.36-3.94-6.57-1.78-.33-3.48.53-3.89,1.52A14,14,0,0,0,105,145a8.06,8.06,0,0,1-.13,1.44,3,3,0,0,1-3.37,2.17c-1.64-.31-3.21-2.15-2.73-6.43l0-.13a15.7,15.7,0,0,0,.14-2.57c0-.72-.8-4.57-1.83-4.94L97,135c.65.22,1.48,3.49,1.54,4.54a13.93,13.93,0,0,1-.14,2.5v.14c-.52,4.56,1.25,6.56,3.08,6.9a3.39,3.39,0,0,0,3.87-2.49,8,8,0,0,0,.15-1.53,13.25,13.25,0,0,1,.84-4.73c.34-.83,1.87-1.55,3.4-1.26,1.29.24,3.47,1.36,3.59,6.15a9.74,9.74,0,0,1-.87,3.62,20.22,20.22,0,0,0-.67,2c-1,3.74-1.79,9.23-.29,14.13a6.41,6.41,0,0,0,4.63,4.4A3.47,3.47,0,0,0,116.71,169.38Z" transform="translate(-10.8 -4.93)"/></g><path class="cls-2" d="M121.31,137.62a4,4,0,0,0-3.82,2,9.9,9.9,0,0,0-1.24,4.35,43.85,43.85,0,0,0,.4,12.32c.4,2.26,1,4.59.45,6.82s-2.62,4.32-4.87,3.89a6.23,6.23,0,0,1-4.46-4.25c-1.35-4.41-.85-9.55.29-14,.49-1.9,1.59-3.71,1.54-5.67-.2-8.22-6.6-6.92-7.41-5-1.08,2.62-.71,5.24-1,6.3-.93,3.57-7.46,3.84-6.53-4.34a16,16,0,0,0,.16-2.67c0-.89-.84-4.44-1.69-4.74" transform="translate(-10.8 -4.93)"/><path class="cls-7" d="M112.83,167.27c2.13,0,4-2,4.48-4.11a14.48,14.48,0,0,0-.28-6c-.06-.3-.11-.61-.16-.91a43.43,43.43,0,0,1-.41-12.26,10,10,0,0,1,1.21-4.25,3.83,3.83,0,0,1,3.6-1.9l.07-.43a4.22,4.22,0,0,0-4,2.09,10.31,10.31,0,0,0-1.28,4.44,44,44,0,0,0,.41,12.39c0,.3.11.6.16.91a14.35,14.35,0,0,1,.29,5.82c-.5,2.13-2.48,4.13-4.62,3.72a6,6,0,0,1-4.3-4.1c-1.46-4.8-.64-10.2.3-13.89a19.26,19.26,0,0,1,.66-1.94,10.4,10.4,0,0,0,.89-3.79c-.13-5.29-2.8-6.36-3.94-6.57-1.78-.33-3.48.53-3.89,1.52a13.8,13.8,0,0,0-.87,4.88,8.06,8.06,0,0,1-.13,1.44,3,3,0,0,1-3.37,2.17c-1.64-.31-3.22-2.15-2.73-6.42v-.14a14.67,14.67,0,0,0,.15-2.57c0-.71-.8-4.57-1.83-4.93l-.15.41c.64.23,1.48,3.49,1.54,4.54a14.92,14.92,0,0,1-.14,2.5V140c-.52,4.57,1.25,6.56,3.08,6.9a3.39,3.39,0,0,0,3.87-2.49,8,8,0,0,0,.15-1.53,13.25,13.25,0,0,1,.84-4.73c.34-.83,1.87-1.54,3.4-1.26,1.29.24,3.47,1.36,3.59,6.16a9.69,9.69,0,0,1-.87,3.61,17.38,17.38,0,0,0-.67,2c-1,3.73-1.79,9.22-.29,14.12a6.41,6.41,0,0,0,4.63,4.4A3.47,3.47,0,0,0,112.83,167.27Z" transform="translate(-10.8 -4.93)"/><g class="cls-8"><path class="cls-4" d="M109.6,143.07c.05,2-1,3.77-1.54,5.67-1.15,4.47-1.64,9.6-.29,14a6.23,6.23,0,0,0,4.46,4.25,3.46,3.46,0,0,0,2.59-.58,6.22,6.22,0,0,1-4.41-4.23c-1.34-4.41-.85-9.54.3-14,.49-1.9,1.59-3.71,1.54-5.67-.17-6.87-4.67-7.09-6.61-5.84C107.53,136.93,109.49,138.58,109.6,143.07Z" transform="translate(-10.8 -4.93)"/><path class="cls-2" d="M112.18,167.21a6.42,6.42,0,0,1-4.62-4.4c-1.5-4.9-.67-10.39.29-14.12a16.61,16.61,0,0,1,.67-2,9.76,9.76,0,0,0,.86-3.62h0c-.13-5.15-2.68-6-3.77-6.19l-.59-.08.5-.32a4.25,4.25,0,0,1,4.15-.16c1.22.65,2.7,2.24,2.8,6.18a10.16,10.16,0,0,1-.9,3.78,19.38,19.38,0,0,0-.65,2c-1,3.68-1.76,9.09-.3,13.88a6,6,0,0,0,4.24,4.09l.52.11-.44.29a3.87,3.87,0,0,1-2.11.66A3.57,3.57,0,0,1,112.18,167.21Zm-2-5c-1.49-4.89-.66-10.38.3-14.12a18.55,18.55,0,0,1,.66-2,9.59,9.59,0,0,0,.87-3.62c-.09-3.72-1.44-5.21-2.56-5.8a3.78,3.78,0,0,0-3.19-.13c1.34.4,3.42,1.78,3.54,6.48h0a10.16,10.16,0,0,1-.9,3.78,20.08,20.08,0,0,0-.65,1.94c-.94,3.69-1.76,9.09-.3,13.89a6,6,0,0,0,4.3,4.1,3.14,3.14,0,0,0,2-.28A6.62,6.62,0,0,1,110.2,162.25Z" transform="translate(-10.8 -4.93)"/></g><g class="cls-8"><path class="cls-4" d="M94.83,137.38a16,16,0,0,1-.16,2.67c-.74,6.52,3.25,7.67,5.38,6.06-1.7-.42-3.21-2.39-2.73-6.62a15.89,15.89,0,0,0,.16-2.67s0-.08,0-.12a4.52,4.52,0,0,0-3.73-3.95l-.6-.11C94,132.94,94.78,136.49,94.83,137.38Z" transform="translate(-10.8 -4.93)"/><path class="cls-2" d="M96.54,146.56c-1.69-1-2.45-3.34-2.08-6.53v-.13a15,15,0,0,0,.14-2.51h0c-.06-1-.89-4.31-1.54-4.54l.11-.42.6.1a4.76,4.76,0,0,1,3.91,4.14.61.61,0,0,0,0,.14,14.72,14.72,0,0,1-.15,2.58v.13c-.47,4.12,1,6,2.56,6.38l.45.11-.37.28a3.39,3.39,0,0,1-2,.69A3.21,3.21,0,0,1,96.54,146.56Zm.56-7.09,0-.12a15.22,15.22,0,0,0,.14-2.52.45.45,0,0,0,0-.11A4.32,4.32,0,0,0,93.77,133a13.25,13.25,0,0,1,1.28,4.4A14.72,14.72,0,0,1,94.9,140v.13c-.34,3,.34,5.23,1.87,6.1a2.86,2.86,0,0,0,2.79,0C98.48,145.72,96.56,144.24,97.1,139.47Z" transform="translate(-10.8 -4.93)"/></g><path class="cls-2" d="M112,168.33a7.61,7.61,0,0,1-5.5-5.19c-1.58-5.15-.72-10.86.27-14.74.19-.73.46-1.43.71-2.11a9.07,9.07,0,0,0,.8-3.19c-.08-2.89-1-4.68-2.55-5a2.42,2.42,0,0,0-2.25.55,12.25,12.25,0,0,0-.75,4.35,9.29,9.29,0,0,1-.18,1.77,4.54,4.54,0,0,1-5.19,3.32c-2.34-.44-4.61-2.81-4-8.15l0-.14a13.09,13.09,0,0,0,.13-2.3,12,12,0,0,0-1-3.66,1.35,1.35,0,0,1-.58-1.61,1.37,1.37,0,0,1,1.74-.83c2,.72,2.58,5.89,2.59,5.94a16.73,16.73,0,0,1-.15,2.77l0,.13c-.32,2.88.38,4.91,1.81,5.18A1.81,1.81,0,0,0,99.89,144a9.06,9.06,0,0,0,.09-1.2,15.17,15.17,0,0,1,1-5.27c.67-1.62,3-2.6,5.15-2.2,1.42.26,4.72,1.54,4.87,7.67a11,11,0,0,1-1,4.21,16.35,16.35,0,0,0-.61,1.83c-.91,3.54-1.7,8.72-.32,13.27a4.86,4.86,0,0,0,3.42,3.31c1.44.28,2.93-1.28,3.3-2.86a13.37,13.37,0,0,0-.3-5.36c-.06-.3-.11-.61-.17-.91a45.5,45.5,0,0,1-.41-12.71,11.3,11.3,0,0,1,1.44-4.93,5.37,5.37,0,0,1,5.19-2.61,1.36,1.36,0,0,1-.44,2.68,2.71,2.71,0,0,0-2.45,1.39,8.77,8.77,0,0,0-1,3.76,42.36,42.36,0,0,0,.39,11.95c.05.29.11.59.16.89a15.46,15.46,0,0,1,.27,6.47c-.6,2.56-2.83,5-5.56,5A4.56,4.56,0,0,1,112,168.33ZM92.69,133.92Z" transform="translate(-10.8 -4.93)"/><path class="cls-9" d="M252.7,110.61c-.5,2.18-1,4.36-1.51,6.54l.53,5.75a17.05,17.05,0,0,1-4.41,11,13.16,13.16,0,0,1-7,3.77l-32.79,3.71c-3.07.11-5.13-.7-6.51-1.94l-.08-.08-.11-.1,0,0-.1-.1-.13-.13-.11-.13h0c-1.78-2.05-2.12-4.92-2.07-7a15.72,15.72,0,0,1,.26-2.63h0a18.27,18.27,0,0,1,7.29-7.68c4.76-2.76,10.61-3.58,16-3.53a56.57,56.57,0,0,1,6.47.44c-1.14-1.89-2.28-3.79-3.43-5.68a35.13,35.13,0,0,1,24.72-3C250.86,110,251.85,110.33,252.7,110.61Z" transform="translate(-10.8 -4.93)"/><path class="cls-10" d="M240.57,139.3,207.72,143a10.11,10.11,0,0,1-7.6-2.19l-.17-.15,0,0-.07-.06a.94.94,0,0,1-.1-.1l-.08-.08-.1-.1a1.29,1.29,0,0,1-.16-.17l-.12-.13,0,0a11.8,11.8,0,0,1-2.6-8.17,13,13,0,0,1,.44-2.92l0-.06v0h0c1-3.63,3.75-6.54,8.13-8.67,7.1-3.45,16.31-3.68,16.69-3.69,1.14,0,2.28,0,3.42.08l-1.73-2.86-.86-1.43,1.46-.82a45.55,45.55,0,0,1,29-5.39l1.67.24-2.09,11,.52,5.62v.1a18.59,18.59,0,0,1-4.87,12.11,14.72,14.72,0,0,1-7.84,4.23Zm-38.45-1,.1.09h0a7,7,0,0,0,5.12,1.43l32.73-3.71a11.46,11.46,0,0,0,6.06-3.29,15.32,15.32,0,0,0,3.95-9.86l-.55-5.87,1.54-8.07a42.49,42.49,0,0,0-23.81,4.43l2.55,4.22,1.8,3-3.44-.54a35.72,35.72,0,0,0-6.19-.42c-.36,0-8.87.22-15.34,3.37-3.52,1.7-5.68,3.93-6.42,6.62l0,.08a10,10,0,0,0-.32,2.17,8.55,8.55,0,0,0,1.74,5.86h0l.07.08.07.08h0l.09.09.07.08,0,0v0l.06,0,0,0,0,0Z" transform="translate(-10.8 -4.93)"/><path class="cls-11" d="M253.16,106.6q-1,5.28-2,10.55l.53,5.75a17.05,17.05,0,0,1-4.41,11,13.16,13.16,0,0,1-7,3.77l-32.79,3.71a8.59,8.59,0,0,1-6.36-1.81l-.15-.13-.08-.08-.11-.1,0,0-.1-.1-.13-.13-.11-.13h0a10.15,10.15,0,0,1-2.2-7.05l.13.05a18.39,18.39,0,0,0,7.14,1.56c7.77-.07,26.85-1.62,26.85-1.62S244,129.71,245.91,124a42.26,42.26,0,0,0,1.64-12.55l2.18-1.72Z" transform="translate(-10.8 -4.93)"/><path class="cls-10" d="M201.48,138.19a6.39,6.39,0,0,1,.31-.68c.11-.21.23-.41.35-.6s.26-.37.39-.56.27-.35.42-.52a9.29,9.29,0,0,1,2-1.69,7.13,7.13,0,0,1,2.34-1,5.47,5.47,0,0,1,2.48,0,.27.27,0,0,1,.2.31.23.23,0,0,1-.11.18h0a18.12,18.12,0,0,0-1.88,1.27,13,13,0,0,0-1.58,1.47c-.49.52-.95,1.08-1.39,1.65-.22.29-.44.57-.65.87l-.32.43c-.1.14-.22.3-.3.39l-.17.19a1.15,1.15,0,0,1-1.78-.12A1.66,1.66,0,0,1,201.48,138.19Z" transform="translate(-10.8 -4.93)"/><path class="cls-10" d="M197.83,131.42c.16-.21.28-.35.42-.51s.28-.29.42-.42.29-.25.44-.38l.46-.34a6.62,6.62,0,0,1,1.94-.92,4.83,4.83,0,0,1,2-.2,4,4,0,0,1,1.86.68.28.28,0,0,1,.07.33.24.24,0,0,1-.13.13h0a14.52,14.52,0,0,0-1.76.58,10.94,10.94,0,0,0-1.58.85c-.51.32-1,.68-1.49,1.05l-.73.58-.35.29-.33.26-.19.11a.86.86,0,0,1-1.3-.59A1.72,1.72,0,0,1,197.83,131.42Z" transform="translate(-10.8 -4.93)"/><path class="cls-12" d="M186.11,137.22" transform="translate(-10.8 -4.93)"/><path class="cls-13" d="M303.13,131.32c.45-7.23-14.61-14.51-14.61-14.51s3.93-.85,2.56-3.62c-2.11-4.26-13.74-5.92-13.74-5.92s4.47-4.27,1.38-5.6c-6.13-2.65-23.2-3.52-31.69-4.83L243.08,111l1.07.44.49.2,1.09.46q2.76,1.22,5.17,2.53c.61.33,1.21.67,1.79,1,17.6,10.39,20.2,24.71,14,32.42a10.37,10.37,0,0,1-8.47,3.08,9.68,9.68,0,0,1-2.13-.46,11.56,11.56,0,0,1-5.88-4.84c-2.25-3.4-5.33-2.33-6.83,1.09v0a7.39,7.39,0,0,0-.4,1.12.58.58,0,0,0-.05.14c-2,7.17-.81,11.76-.81,11.76s-4.56,1.67-4.5,4.18c.2,7.79,19.15,10.92,19.15,10.92s-3.73,6.48.7,7.16c10.22,1.59,24-8.12,24-8.12s2.27,3,4.3,2.82c5.47-.56,8.46-17.93,8.46-17.93s4.31,2,6.28-1.42c5.1-8.92-3.59-24.32-3.59-24.32S302.89,135.08,303.13,131.32Z" transform="translate(-10.8 -4.93)"/><path class="cls-13" d="M303.13,131.32c.45-7.23-14.61-14.51-14.61-14.51s3.93-.85,2.56-3.62c-2.11-4.26-13.74-5.92-13.74-5.92s4.47-4.27,1.38-5.6c-6.13-2.65-23.2-3.52-31.69-4.83L243.08,111l1.07.44.49.2,1.09.46q2.76,1.22,5.17,2.53c.61.33,1.21.67,1.79,1,17.6,10.39,20.2,24.71,14,32.42a10.37,10.37,0,0,1-8.47,3.08,9.68,9.68,0,0,1-2.13-.46,11.56,11.56,0,0,1-5.88-4.84c-2.25-3.4-5.33-2.33-6.83,1.09v0a7.39,7.39,0,0,0-.4,1.12.58.58,0,0,0-.05.14c-2,7.17-.81,11.76-.81,11.76s-4.56,1.67-4.5,4.18c.2,7.79,19.15,10.92,19.15,10.92s-3.73,6.48.7,7.16c10.22,1.59,24-8.12,24-8.12s2.27,3,4.3,2.82c5.47-.56,8.46-17.93,8.46-17.93s4.31,2,6.28-1.42c5.1-8.92-3.59-24.32-3.59-24.32S302.89,135.08,303.13,131.32Z" transform="translate(-10.8 -4.93)"/><g class="cls-14"><path class="cls-9" d="M270.57,129.11c-3.21-7-12.4-15.08-17.88-13.43,17.6,10.39,20.2,24.71,14,32.42a10.37,10.37,0,0,1-8.47,3.08,9.68,9.68,0,0,1-2.13-.46,6.12,6.12,0,0,0,3,1.28C267.39,152.86,277,143.11,270.57,129.11Z" transform="translate(-10.8 -4.93)"/></g><path class="cls-9" d="M303.13,131.32c.45-7.23-14.61-14.51-14.61-14.51s3.93-.85,2.56-3.62c-2.11-4.26-13.74-5.92-13.74-5.92s4.47-4.27,1.38-5.6c-6.13-2.65-23.2-3.52-31.69-4.83L243.08,111h0l1.07.44.49.2,1.09.47,4.08,2.45a7.88,7.88,0,0,0,1.09.07c7.09-.14,14.78-11.43,20.75-6.71,2.27,1.79-.11,6.33-.17,6.44h0c.17,0,10.76-2.79,12.58.88,1.19,2.41-5.52,6-5.52,6s15.43-.86,17.88,5.15c1.23,3-8.26,2.23-8.26,2.23s14.07,15.85,8.31,25.34c-1.19,2-5.44-4-5.44-4s-.92,20.66-5.68,21.16c-1.76.18-3.49-5.63-3.49-5.63s-9.38,7.46-18.81,4.88a11.26,11.26,0,0,1-8.41-8.55c-.66-3.26-.28-6.94,3.6-10.62-2.74-.27-5.64-1.72-8-5.3-2.25-3.4-5.32-2.33-6.83,1.09,0,0,0,0,0,0-.17.44-.31.81-.4,1.12,0,0,0,.09-.05.14-2,7.17-.81,11.77-.81,11.77s-4.56,1.66-4.5,4.17c.2,7.79,19.15,10.92,19.15,10.92s-3.73,6.48.71,7.17c10.21,1.58,24-8.13,24-8.13s2.27,3,4.3,2.82c5.43-.55,8.41-17.64,8.46-17.92h0c.14.07,4.34,2,6.28-1.42,5.1-8.92-3.59-24.32-3.59-24.32S302.89,135.08,303.13,131.32Z" transform="translate(-10.8 -4.93)"/><path class="cls-10" d="M274.62,99.34c-4.84-1-11.48-1.75-17.53-2.38-3.73-.4-7.26-.77-9.9-1.17a1.06,1.06,0,1,0-.33,2.1c2.7.42,6.25.79,10,1.18,8.14.86,17.38,1.83,21.43,3.57.4.17.43.33.44.4.14.8-1.15,2.52-2.13,3.46L275,108l2.17.31c3.08.44,11.41,2.25,12.94,5.33a1,1,0,0,1,.1,1,3.2,3.2,0,0,1-1.94,1.16l-3,.66,2.77,1.34c4,1.94,14.35,8.15,14,13.48a1.23,1.23,0,0,1-.49,1c-.95.66-3.14.36-4.29,0l-2.52-.75,1.28,2.29c.09.15,8.33,15,3.6,23.27-1.46,2.56-4.77,1-4.91,1l-1.26-.59-.24,1.37c-1.19,6.88-4.3,16.72-7.52,17.06-1,.1-2.55-1.35-3.34-2.41l-.62-.82-.85.59c-.13.09-13.59,9.44-23.26,7.94-.78-.12-1-.43-1.12-.65-.57-1.19.54-3.83,1.17-4.93l.76-1.33-1.51-.25c-5-.83-18.11-4.24-18.25-9.9,0-1.31,2.54-2.68,3.79-3.14l.91-.34-.24-.94s-1.11-4.44.8-11.2c.58-2,1.72-3.47,2.9-3.65s1.94.77,2.48,1.58c3,4.59,6.77,5.69,9.38,5.81a11.32,11.32,0,0,0,8.82-3.51c3.1-3.86,4-9.17,2.61-14.56-2.6-9.71-12.32-18.52-26.69-24.16a1.06,1.06,0,0,0-1.37.61,1,1,0,0,0,.6,1.37c13.72,5.39,23,13.68,25.4,22.73,1.26,4.73.46,9.35-2.21,12.68a9.31,9.31,0,0,1-7.07,2.71c-3-.13-5.68-1.81-7.7-4.85-1.68-2.55-3.59-2.67-4.58-2.51-2,.31-3.8,2.29-4.61,5.17a27.35,27.35,0,0,0-1,11.41c-1.51.69-4.41,2.35-4.35,4.85.19,7.38,13.89,10.74,18.63,11.68-.65,1.48-1.41,3.87-.59,5.58a3.37,3.37,0,0,0,2.71,1.85c9.2,1.42,20.84-5.68,24-7.76.94,1,2.74,2.65,4.61,2.46,2.76-.28,5.11-3.52,7.18-9.9a70.9,70.9,0,0,0,2-7.67c2,.52,4.83.43,6.4-2.32,4.27-7.47-.38-18.84-2.58-23.4a5.9,5.9,0,0,0,3.87-.73,3.3,3.3,0,0,0,1.4-2.62c.39-6.24-9-12.17-13.24-14.5a3.53,3.53,0,0,0,1.2-1.36,3.07,3.07,0,0,0-.12-2.81c-1.8-3.65-9-5.48-12.62-6.17.83-1.08,1.66-2.56,1.42-3.88a2.61,2.61,0,0,0-1.69-2A26.34,26.34,0,0,0,274.62,99.34Z" transform="translate(-10.8 -4.93)"/><path class="cls-10" d="M274.62,99.34c-4.84-1-11.48-1.75-17.53-2.38-3.73-.4-7.26-.77-9.9-1.17a1.06,1.06,0,1,0-.33,2.1c2.7.42,6.25.79,10,1.18,8.14.86,17.38,1.83,21.43,3.57.4.17.43.33.44.4.14.8-1.15,2.52-2.13,3.46L275,108l2.17.31c3.08.44,11.41,2.25,12.94,5.33a1,1,0,0,1,.1,1,3.2,3.2,0,0,1-1.94,1.16l-3,.66,2.77,1.34c4,1.94,14.35,8.15,14,13.48a1.23,1.23,0,0,1-.49,1c-.95.66-3.14.36-4.29,0l-2.52-.75,1.28,2.29c.09.15,8.33,15,3.6,23.27-1.46,2.56-4.77,1-4.91,1l-1.26-.59-.24,1.37c-1.19,6.88-4.3,16.72-7.52,17.06-1,.1-2.55-1.35-3.34-2.41l-.62-.82-.85.59c-.13.09-13.59,9.44-23.26,7.94-.78-.12-1-.43-1.12-.65-.57-1.19.54-3.83,1.17-4.93l.76-1.33-1.51-.25c-5-.83-18.11-4.24-18.25-9.9,0-1.31,2.54-2.68,3.79-3.14l.91-.34-.24-.94s-1.11-4.44.8-11.2c.58-2,1.72-3.47,2.9-3.65s1.94.77,2.48,1.58c3,4.59,6.77,5.69,9.38,5.81a11.32,11.32,0,0,0,8.82-3.51c3.1-3.86,4-9.17,2.61-14.56-2.6-9.71-12.32-18.52-26.69-24.16a1.06,1.06,0,0,0-1.37.61,1,1,0,0,0,.6,1.37c13.72,5.39,23,13.68,25.4,22.73,1.26,4.73.46,9.35-2.21,12.68a9.31,9.31,0,0,1-7.07,2.71c-3-.13-5.68-1.81-7.7-4.85-1.68-2.55-3.59-2.67-4.58-2.51-2,.31-3.8,2.29-4.61,5.17a27.35,27.35,0,0,0-1,11.41c-1.51.69-4.41,2.35-4.35,4.85.19,7.38,13.89,10.74,18.63,11.68-.65,1.48-1.41,3.87-.59,5.58a3.37,3.37,0,0,0,2.71,1.85c9.2,1.42,20.84-5.68,24-7.76.94,1,2.74,2.65,4.61,2.46,2.76-.28,5.11-3.52,7.18-9.9a70.9,70.9,0,0,0,2-7.67c2,.52,4.83.43,6.4-2.32,4.27-7.47-.38-18.84-2.58-23.4a5.9,5.9,0,0,0,3.87-.73,3.3,3.3,0,0,0,1.4-2.62c.39-6.24-9-12.17-13.24-14.5a3.53,3.53,0,0,0,1.2-1.36,3.07,3.07,0,0,0-.12-2.81c-1.8-3.65-9-5.48-12.62-6.17.83-1.08,1.66-2.56,1.42-3.88a2.61,2.61,0,0,0-1.69-2A26.34,26.34,0,0,0,274.62,99.34Z" transform="translate(-10.8 -4.93)"/><g class="cls-14"><path class="cls-10" d="M303.13,131.32c.45-7.23-14.61-14.51-14.61-14.51s3.93-.85,2.56-3.62c-2.11-4.26-13.74-5.92-13.74-5.92s4.47-4.27,1.38-5.6c-6.13-2.65-23.2-3.52-31.69-4.83l-.85,3c9,1.08,21.26.48,25.21,4.73,2.32,2.51-1,6.16-1,6.16s11-.46,13.1,3.81c1.36,2.76-6.1,5.67-6.1,5.67s17.89,2.87,17.42,8.16c-.27,3.08-7.88,1.21-7.88,1.21s15.35,19.17,10.09,24.68c-1.89,2-5.61-.6-5.61-.6s.9,16.72-7,23a2.65,2.65,0,0,0,1.43.3c5.47-.56,8.46-17.93,8.46-17.93s4.31,2,6.28-1.42c5.1-8.92-3.59-24.32-3.59-24.32S302.89,135.08,303.13,131.32Z" transform="translate(-10.8 -4.93)"/></g><path class="cls-9" d="M224.4,127.1c-14.2,1.25-32.52,1.21-48.12-4.14-10.9-3.74-20.47-10.07-26.39-20.37-6.76-11.75-7.55-20.5-5.34-27C148.75,63.27,171,56.48,190,61.5c14.47,3.81,34.05,10.85,46.69,23C243.57,91,248.38,99,249.29,108.8,250.11,117.82,239.22,125.79,224.4,127.1Z" transform="translate(-10.8 -4.93)"/><path class="cls-9" d="M249.65,108.78c-.83-9-5.08-17.24-12.61-24.44-12.74-12.2-32.51-19.26-46.85-23a53.49,53.49,0,0,0-28.87.62c-8.88,2.8-15.12,7.76-17.12,13.63-.08.23-.16.47-.23.7-2.18,7.3-.31,16.18,5.58,26.42,5.41,9.4,14.34,16.29,26.55,20.48,10.83,3.72,23,4.84,33.76,4.83h.47c1.6,0,3.18,0,4.72-.09,3.35-.12,6.52-.32,9.4-.58a41.52,41.52,0,0,0,12.8-3.12,30.24,30.24,0,0,0,4.09-2.13c.34-.21.67-.42,1-.64l.11-.08.27-.18C247.4,117.8,250.07,113.41,249.65,108.78Zm-7.54,12.12c-.49.35-1,.68-1.53,1A31.76,31.76,0,0,1,236.5,124a41.17,41.17,0,0,1-12.15,2.9c-4.36.38-9.37.66-14.71.66-10.63,0-22.56-1.12-33.18-4.77h0c-12-4.14-20.84-11-26.19-20.24-5.77-10-7.66-18.76-5.62-25.93q.13-.48.3-1c2-5.73,8.05-10.59,16.74-13.32a52.28,52.28,0,0,1,28.24-.61c14.25,3.75,33.9,10.77,46.54,22.88l.2.2c7.34,7.08,11.48,15.17,12.3,24,.41,4.51-2.19,8.78-6.78,12.06Z" transform="translate(-10.8 -4.93)"/><path class="cls-13" d="M240.52,122.44c-.27-.44-.54-.88-.8-1.32-.05-.08-.1-.15-.14-.23h0l-.11-.19-.15-.25-1-1.63c-3.89-6.7-7.29-13.49-10.34-16.74-1.72-1.82-4.62-3.51-8.3-5-11.74-4.91-31.48-8.27-46.41-9.45-7.71-.6-17-4.26-25.33-8.48-.74-.36-1.46-.73-2.18-1.11l-.3-.16-.31-.16-2.11-1.13c2.13-6,8.54-11,17.63-13.91,8.78-2.77,16.43-2.37,29.77-.64,8.83,1.14,14.24,1.84,20.58,4.11,18.42,6.61,40.92,25.13,37.87,42.67C248.42,111.66,246.82,116.8,240.52,122.44Z" transform="translate(-10.8 -4.93)"/><path class="cls-10" d="M252.18,108.69c2.7-12.22-12.5-28.59-25.11-37.19s-24.92-10.84-32.48-12.18c-1.54-.28-17.66-3-32.06.57-.46.11-1.3.33-2.38.67-9.47,3-16.16,8.27-18.38,14.51l-.06.18c-2.62,7.7-.79,17.09,5.44,27.92,6.69,11.65,18.57,19.55,35.29,23.5a119.49,119.49,0,0,0,27.71,2.86h.49q6.83-.06,14.17-.7a46.7,46.7,0,0,0,10.77-2.2,39.08,39.08,0,0,0,4.11-1.63c.79-.37,1.55-.76,2.28-1.18l0,0q.74-.4,1.41-.84C244,122.6,250.77,115.08,252.18,108.69Zm-11,10.49a23,23,0,0,1-3.44,2.27,30.22,30.22,0,0,1-4.1,1.83,37.57,37.57,0,0,1-9.63,2.08c-4.81.43-9.91.69-15.1.67-10.66,0-21.69-1.27-31.47-4.68-10.31-3.61-19.22-9.66-24.79-19.34-5.39-9.37-7.32-17.52-5.75-24.26a17.9,17.9,0,0,1,.51-1.81c3-8.76,13.56-11.73,15.42-12.27,3.29-1,6.36-1.06,12.49-1.28a95.48,95.48,0,0,1,9.6.12,89.28,89.28,0,0,1,20.48,3.7,82.85,82.85,0,0,1,16.12,6.93c6,3.39,11.2,6.33,16.05,12,2.07,2.44,10.81,12.73,8.84,23.72C246.31,109.35,245.05,116.05,241.16,119.18Z" transform="translate(-10.8 -4.93)"/><path class="cls-13" d="M223.15,90c-3.25-1.18-5.62-3.61-10.87-4.12a17.4,17.4,0,0,0-7.55.8c-6.07,2.14-9.07,7.45-10.43,10.08-10,19.34,5.29,32,9.37,34.17s7.52,3.65,7.52,3.65a39,39,0,0,0,19.69-2.86,38.35,38.35,0,0,0,10.61-6.81,40.78,40.78,0,0,0,3.24-7.52A38.87,38.87,0,0,0,241.33,86C232.32,91.45,226.68,91.28,223.15,90Z" transform="translate(-10.8 -4.93)"/><path class="cls-9" d="M232.23,104.86c-7.69,4.8-13.94-.27-28.46,5.32-4.36,1.68-7.24,3.46-9.14,2.08-3.79-2.76.93-14.8.62-14.88s-4.27,6.9-3.13,15.6c1.37,10.44,9.65,17.06,12.5,18.56,4.08,2.15,7.52,3.66,7.52,3.66a39.26,39.26,0,0,0,19.69-2.86,38.5,38.5,0,0,0,10.61-6.81,41.8,41.8,0,0,0,3.24-7.52,38.9,38.9,0,0,0-3.4-31.38C240.3,97.67,236,102.51,232.23,104.86Z" transform="translate(-10.8 -4.93)"/><path class="cls-10" d="M222.84,89.92c.2-.79-9-6.48-17.83-3.45-6.43,2.19-9.67,7.82-11.24,10.86-3.24,6.3-4,11.94-3.37,16.81.09.68,2,13.44,13.47,20a26.72,26.72,0,0,0,10.77,3.36,37.32,37.32,0,0,0,30-9.83,34.41,34.41,0,0,1,2.45-8.92c1.31-3.07,2-3.4,3-5.8a22,22,0,0,0,1.29-13.47c-.95-3.83-3-6.62-5.75-10.41-1-1.44-2-2.58-2.67-3.35l-4.16,1A44.05,44.05,0,0,1,246,96.46a20.57,20.57,0,0,1,.79,16.78,14,14,0,0,1-1.54,2.93,13.19,13.19,0,0,1-2.86,2.93c-9.22,7.1-11.88,11.44-19.37,13.06a24.19,24.19,0,0,1-9.72.11,23.56,23.56,0,0,1-11.34-5.78,23,23,0,0,1-7.28-14.23c-.95-9.5,4.71-19.07,12.22-22.34C214.63,86.55,222.66,90.67,222.84,89.92Z" transform="translate(-10.8 -4.93)"/><path class="cls-9" d="M245.08,122.9c-.22,2.23-.45,4.45-.67,6.68l1.25,5.63c.11,1.24.52,6.84-3,11.5a13.2,13.2,0,0,1-6.45,4.62l-32.06,7.83c-3,.49-5.18,0-6.7-1.11l-.09-.06-.12-.09,0,0-.12-.09-.14-.11-.13-.11h0c-2-1.81-2.72-4.62-2.94-6.68a14.89,14.89,0,0,1-.07-2.65h0a18.25,18.25,0,0,1,6.26-8.54c4.38-3.34,10.07-4.88,15.44-5.52a57.21,57.21,0,0,1,6.48-.38c-1.37-1.74-2.75-3.47-4.12-5.2A35.08,35.08,0,0,1,242,122.43C243.18,122.56,244.2,122.73,245.08,122.9Z" transform="translate(-10.8 -4.93)"/><path class="cls-10" d="M236.67,152.89l-32.11,7.84a10.1,10.1,0,0,1-7.82-1.22l-.19-.12-.05,0-.07-.06-.11-.08-.09-.07-.12-.09-.17-.14-.14-.12,0,0a11.78,11.78,0,0,1-3.6-7.79,13.15,13.15,0,0,1,.06-2.95V148h0a11.72,11.72,0,0,1,2.16-5.21,16.9,16.9,0,0,1,4.81-4.41,36.24,36.24,0,0,1,16.13-5.47,41.78,41.78,0,0,1,4.17-.29l-2.88-3-1-1.31,1.35-1a45.82,45.82,0,0,1,28.1-9l1.69,0L246,129.45l1.22,5.51v.1a18.57,18.57,0,0,1-3.3,12.62,16.4,16.4,0,0,1-3.05,3A14.79,14.79,0,0,1,236.67,152.89Zm-38.27,3.83.11.08h0a7,7,0,0,0,5.27.77l32-7.81a11.48,11.48,0,0,0,5.59-4,15.23,15.23,0,0,0,2.67-10.27l-1.28-5.75.51-8.2a42.49,42.49,0,0,0-23.06,7.4l3.06,3.86,2.16,2.73-3.48-.1a35.55,35.55,0,0,0-6.19.36c-.35.06-8.77,1.35-14.8,5.28-3.26,2.14-5.13,4.62-5.53,7.38v.09a9.94,9.94,0,0,0,0,2.19,8.51,8.51,0,0,0,2.46,5.59h0l.08.07a.27.27,0,0,0,.08.07h0l.1.08.08.07,0,0h0l.06,0h0l0,0Z" transform="translate(-10.8 -4.93)"/><path class="cls-9" d="M211.34,129.85a33.89,33.89,0,0,0,7.06,2.76,31.14,31.14,0,0,1,4.22,1.11,24.48,24.48,0,0,1,2.67,1.16l17.87-12c.18-1.46.26-2.64.29-3.42a28.28,28.28,0,0,1,.41-5.61,13.48,13.48,0,0,1,.58-1.91l-37.32,15.68C208.75,128.56,210.2,129.3,211.34,129.85Z" transform="translate(-10.8 -4.93)"/><path class="cls-10" d="M197.75,156.73A5.6,5.6,0,0,1,198,156c.08-.22.17-.43.27-.64s.21-.4.31-.6.23-.38.35-.57a9,9,0,0,1,1.75-1.93,6.89,6.89,0,0,1,2.2-1.25,5.56,5.56,0,0,1,2.46-.31.28.28,0,0,1,.23.28.25.25,0,0,1-.08.2h0a19.64,19.64,0,0,0-1.71,1.49,14.46,14.46,0,0,0-1.38,1.66c-.42.59-.8,1.19-1.17,1.82-.18.31-.37.62-.54.94-.09.15-.17.31-.26.47a3.67,3.67,0,0,1-.24.42l-.15.22a1.15,1.15,0,0,1-1.79.1A1.67,1.67,0,0,1,197.75,156.73Z" transform="translate(-10.8 -4.93)"/><path class="cls-10" d="M193.27,150.47c.14-.23.24-.38.36-.56l.36-.47.39-.43.41-.39a6.83,6.83,0,0,1,1.81-1.17,5,5,0,0,1,2-.45,3.9,3.9,0,0,1,1.94.45.26.26,0,0,1,.1.31.25.25,0,0,1-.11.15h0a12.9,12.9,0,0,0-1.67.8,11.21,11.21,0,0,0-1.47,1c-.46.38-.91.8-1.34,1.23-.22.22-.44.44-.65.67l-.31.33a3.89,3.89,0,0,1-.3.29l-.16.14a.86.86,0,0,1-1.37-.42A1.72,1.72,0,0,1,193.27,150.47Z" transform="translate(-10.8 -4.93)"/><g class="cls-5"><path class="cls-10" d="M244.88,121.37c-.16,2.74-.31,5.47-.47,8.21.41,1.88.83,3.75,1.25,5.63a17.09,17.09,0,0,1-3,11.5,13.2,13.2,0,0,1-6.45,4.62l-32.06,7.83a8.62,8.62,0,0,1-6.54-1l-.16-.11-.09-.06-.12-.09,0,0-.12-.09-.14-.11-.13-.11h0a10.13,10.13,0,0,1-3.07-6.72l.13,0a18.38,18.38,0,0,0,7.29.64c7.69-1.05,26.42-5,26.42-5s11.28-3.58,12.42-9.46a39.76,39.76,0,0,0,.25-11.08c-9.84,7.32-24,5.68-26.37,5.37-4.48-.58-5-1.43-13-3.63a149.87,149.87,0,0,0-24.59-4.55,13.06,13.06,0,0,0,6.62-4.93c2-3.14,1.79-6.53,1.77-8.11-.08-4.39,1.08-11,6.93-20.32,2,.26,4.2.64,6.52,1.17,1.82.41,3.51.88,5.09,1.36-3,2.73-6.12,6.24-5.19,8.77,2.21,6.07,28.48,9.09,34.4-3.7,3.19-6.89-.1-17.15-8.33-24.38,16.33,8.35,26.4,22.43,25.2,36A26.93,26.93,0,0,1,244.88,121.37Z" transform="translate(-10.8 -4.93)"/></g><path class="cls-9" d="M79.92,114a16.22,16.22,0,0,0-13.82,7.18c-3.76,5.56-7.41,14.89-3.47,27.81,0,0,1.86,8.05,11.1,7.58a10.6,10.6,0,0,0,8.67-5.23,14.9,14.9,0,0,0,2.22-7.44c.1-2.79.72-8.32,3.88-12.37A10.88,10.88,0,0,0,80.4,114Z" transform="translate(-10.8 -4.93)"/><path class="cls-10" d="M73,156.72A10.57,10.57,0,0,1,62.45,149c-4-13-.28-22.37,3.5-27.95a16.33,16.33,0,0,1,14-7.27l.47,0A10.94,10.94,0,0,1,90,120.24a10.79,10.79,0,0,1-1.32,11.35c-3.1,4-3.73,9.39-3.83,12.27a15.08,15.08,0,0,1-2.26,7.53,10.65,10.65,0,0,1-8.81,5.31Zm6.55-42.6a16,16,0,0,0-13.26,7.11c-3.73,5.52-7.36,14.8-3.44,27.65.08.34,1.94,7.9,10.91,7.45a10.28,10.28,0,0,0,8.52-5.14,14.77,14.77,0,0,0,2.2-7.35c.1-2.91.74-8.41,3.91-12.47a10.69,10.69,0,0,0-8-17.22l-.47,0h-.41Z" transform="translate(-10.8 -4.93)"/><g class="cls-5"><path class="cls-10" d="M86,115.83a10.67,10.67,0,0,1-1.57,10.49c-3.16,4.05-3.78,9.58-3.88,12.37a14.81,14.81,0,0,1-2.23,7.44,10.59,10.59,0,0,1-8.67,5.23,11.16,11.16,0,0,1-6.79-1.63c.75,2,3.4,7.17,10.85,6.79a10.6,10.6,0,0,0,8.67-5.23,14.9,14.9,0,0,0,2.22-7.44c.1-2.79.72-8.32,3.88-12.37A10.87,10.87,0,0,0,86,115.83Z" transform="translate(-10.8 -4.93)"/></g><path class="cls-10" d="M67.09,156.17a8.27,8.27,0,0,1-.48-1.3c-.11-.43-.21-.86-.28-1.29a13.93,13.93,0,0,1-.16-2.66,11.35,11.35,0,0,1,.42-2.65,7.7,7.7,0,0,1,1.13-2.45.37.37,0,0,1,.51-.09.35.35,0,0,1,.15.25v0c.11.86.17,1.65.29,2.43s.23,1.54.37,2.3l.44,2.27.22,1.13c.06.37.15.77.17,1.1l0,.16a1.48,1.48,0,0,1-2.81.77Z" transform="translate(-10.8 -4.93)"/><path class="cls-10" d="M75.38,156.52a8.55,8.55,0,0,1-.48-1.29c-.11-.43-.21-.86-.28-1.3a13.83,13.83,0,0,1-.16-2.66,11.52,11.52,0,0,1,.42-2.65A8,8,0,0,1,76,146.18a.36.36,0,0,1,.51-.09.38.38,0,0,1,.16.25v0c.11.87.17,1.65.29,2.44s.23,1.54.38,2.3l.43,2.26.22,1.13c.06.37.15.77.18,1.1v.17a1.48,1.48,0,0,1-2.81.76Z" transform="translate(-10.8 -4.93)"/><path class="cls-10" d="M73,158a11.73,11.73,0,0,1-11.76-8.69c-4.09-13.45-.26-23.2,3.67-29A17.61,17.61,0,0,1,80,112.47h0l.51,0a12.35,12.35,0,0,1,10.66,7.22,12.06,12.06,0,0,1-1.47,12.68c-2.88,3.69-3.47,8.8-3.57,11.51a16.31,16.31,0,0,1-2.45,8.18A12,12,0,0,1,73.8,158Zm6.54-42.6A14.69,14.69,0,0,0,67.32,122c-3.58,5.28-7,14.18-3.28,26.54l0,.1c.07.28,1.73,6.86,9.58,6.44a9.07,9.07,0,0,0,7.5-4.54,13.43,13.43,0,0,0,2-6.7c.11-3.08.79-8.88,4.19-13.23a9.18,9.18,0,0,0,1.11-9.64,9.31,9.31,0,0,0-8.12-5.5h-.82Z" transform="translate(-10.8 -4.93)"/><path class="cls-9" d="M183.29,113.09s0,0,0,0c-8.47,22.88-23.68,29.73-29.73,31.61a5.32,5.32,0,0,0-3.45,3.28c-3.92,10.77-10.31,13.15-15.9,12.71a15.34,15.34,0,0,1-14-15.62c.19-11.22,9.67-19.32,16.31-23.64a18.37,18.37,0,0,1,13.64-2.57,62.36,62.36,0,0,1,15.68,5.79l-1.3-.85A34.67,34.67,0,0,0,173.74,113a5.73,5.73,0,0,1,5.58-3,4.44,4.44,0,0,1,2.52,1.06A5,5,0,0,1,183.29,113.09Z" transform="translate(-10.8 -4.93)"/><g class="cls-5"><path class="cls-10" d="M183.29,113.09s0,0,0,0c-8.47,22.88-23.68,29.73-29.73,31.61a5.32,5.32,0,0,0-3.45,3.28c-3.92,10.77-10.31,13.15-15.9,12.71a15.34,15.34,0,0,1-14-15.62s5,11.23,13.74,9c5.38-1.39,9.4-6.59,11.68-10.35a11.72,11.72,0,0,1,6.28-5c6.14-2.07,18.21-8.4,29.94-27.72h0a.79.79,0,0,1,1.42.12A2.68,2.68,0,0,1,183.29,113.09Z" transform="translate(-10.8 -4.93)"/></g><path class="cls-10" d="M165.71,124.92c-1.63-.36-3.18-.82-4.72-1.29s-3.05-1-4.56-1.45-3-1-4.55-1.34c-.38-.1-.77-.19-1.15-.27s-.78-.18-1.14-.23a16.4,16.4,0,0,0-2.22-.26,16.9,16.9,0,0,0-8.6,1.91c-.32.19-.65.35-1,.56l-.48.3-.49.33c-.66.43-1.29.9-1.93,1.36-1.26.95-2.49,1.93-3.64,3a34.61,34.61,0,0,0-6,7,21.43,21.43,0,0,0-3.17,8.38,8,8,0,0,0-.1,1.1l-.08,1.12,0,1.08a3.29,3.29,0,0,0,0,.54l.07.54a13.55,13.55,0,0,0,11.27,11.59l1.07.14c.36,0,.72,0,1.08,0a9.76,9.76,0,0,0,1.08-.05l.53-.05c.18,0,.35-.06.52-.09a10.71,10.71,0,0,0,3.93-1.51,13.67,13.67,0,0,0,3.21-2.88,20.66,20.66,0,0,0,2.43-3.8c.32-.69.68-1.37.95-2.1l.43-1.08a7.57,7.57,0,0,1,.69-1.4,6.89,6.89,0,0,1,2.25-2.18,6.39,6.39,0,0,1,1.43-.66l1.14-.37c.37-.12.73-.27,1.09-.4s.72-.28,1.08-.44.72-.29,1.07-.46l1.06-.51a40.35,40.35,0,0,0,7.85-5.14,50.14,50.14,0,0,0,6.62-6.73c.94-1.27,1.95-2.49,2.79-3.84.43-.67.89-1.31,1.31-2s.81-1.36,1.23-2l.64-1,.58-1c.39-.7.79-1.39,1.2-2.08.79-1.41,1.53-2.84,2.42-4.24h0a.3.3,0,0,1,.41-.1.32.32,0,0,1,.14.32c-.17.81-.37,1.61-.59,2.4s-.41,1.61-.71,2.38-.58,1.54-.9,2.31l-.47,1.15c-.17.38-.36.75-.55,1.12-.37.74-.76,1.47-1.15,2.21-.18.37-.43.71-.64,1.06l-.67,1.06C177,128.31,176,129.61,175,131a52.62,52.62,0,0,1-6.92,7.24,43.37,43.37,0,0,1-8.35,5.63l-1.13.57c-.38.19-.77.35-1.16.52s-.77.34-1.17.49-.79.32-1.19.46l-1.17.4a3.47,3.47,0,0,0-.78.37,3.79,3.79,0,0,0-1.19,1.2,4.14,4.14,0,0,0-.38.79l-.46,1.18c-.29.8-.68,1.57-1,2.35a24.21,24.21,0,0,1-2.79,4.41,16.82,16.82,0,0,1-4,3.62,14.21,14.21,0,0,1-5.09,2c-.23,0-.45.09-.68.12l-.68.07c-.45.06-.9.05-1.36.07s-.9,0-1.35,0-.89-.1-1.34-.16a17,17,0,0,1-5.15-1.66,17.26,17.26,0,0,1-7.42-7.65,17.54,17.54,0,0,1-1.56-5.15l-.09-.67a5.2,5.2,0,0,1-.06-.68l0-1.35.08-1.32a11.39,11.39,0,0,1,.13-1.31,25,25,0,0,1,3.68-9.72c.49-.7.93-1.44,1.47-2.11l.79-1,.83-1c.55-.66,1.16-1.24,1.74-1.86.3-.3.62-.58.92-.87s.61-.59.93-.86c1.26-1.12,2.59-2.15,3.93-3.14.69-.48,1.37-1,2.07-1.42l.52-.35.56-.34c.38-.24.77-.44,1.16-.65A19.94,19.94,0,0,1,147.54,117a19.22,19.22,0,0,1,2.61.34c.44.07.83.18,1.25.27s.81.19,1.22.3a48.82,48.82,0,0,1,4.77,1.49,29.8,29.8,0,0,1,4.51,2.1,21,21,0,0,1,4.06,2.93.27.27,0,0,1,0,.39.26.26,0,0,1-.25.08Z" transform="translate(-10.8 -4.93)"/><path class="cls-10" d="M141.41,159.93a6.83,6.83,0,0,1-.61-.51,6.5,6.5,0,0,1-.53-.52c-.16-.18-.32-.38-.47-.56s-.3-.4-.44-.6a11.14,11.14,0,0,1-1.31-2.63,9.57,9.57,0,0,1-.52-2.9,7.38,7.38,0,0,1,.45-2.85.28.28,0,0,1,.34-.17.29.29,0,0,1,.17.17v0a23.07,23.07,0,0,0,.89,2.44,16.74,16.74,0,0,0,1.16,2.13c.43.67.89,1.32,1.37,2,.25.31.49.63.74.93s.25.31.37.46.26.32.33.43l.15.24a1.46,1.46,0,0,1-2.1,2Z" transform="translate(-10.8 -4.93)"/><path class="cls-10" d="M128.84,160.58a6.69,6.69,0,0,1-.53-.59c-.16-.19-.3-.4-.44-.6s-.26-.41-.39-.62-.24-.43-.35-.65a11,11,0,0,1-.9-2.8,9.42,9.42,0,0,1-.1-2.95,7.32,7.32,0,0,1,.87-2.75.27.27,0,0,1,.36-.11.31.31,0,0,1,.14.18v0a20.27,20.27,0,0,0,.54,2.54,15.86,15.86,0,0,0,.83,2.28c.33.73.68,1.44,1.07,2.13l.59,1,.3.51c.09.16.21.35.26.47l.12.26a1.46,1.46,0,0,1-2.37,1.64Z" transform="translate(-10.8 -4.93)"/><path class="cls-15" d="M87.17,115.55" transform="translate(-10.8 -4.93)"/><g class="cls-5"><path class="cls-13" d="M166.16,13.54a4.76,4.76,0,0,0-3.41,0c-15.12,5.29-25.83,20.86-30.52,28.93a4.21,4.21,0,0,1-6.5,1.27h0S138.15,17.06,158.91,9.8C161.78,8.8,164.25,10.35,166.16,13.54Z" transform="translate(-10.8 -4.93)"/></g><path class="cls-16" d="M153.75,58.76c-1.53-3.85-6.31-8.3-10.34-11.54a9.36,9.36,0,0,1-1.36-12.61,62.16,62.16,0,0,1,15.46-14.36c2.48-1.63,5.63.06,6.05,3.23a54.72,54.72,0,0,1-1.39,21,30.31,30.31,0,0,1-7.95,14.12" transform="translate(-10.8 -4.93)"/><path class="cls-16" d="M150.36,47.65a33.27,33.27,0,0,1-1.5,4.43,67,67,0,0,0-5.45-4.86,9.38,9.38,0,0,1-1.36-12.61A58.58,58.58,0,0,1,151.22,25a4.74,4.74,0,0,1,.54,1.68A54.5,54.5,0,0,1,150.36,47.65Z" transform="translate(-10.8 -4.93)"/><g class="cls-5"><path class="cls-13" d="M74.49,9.67a4.71,4.71,0,0,1,3.4.26c14.65,6.54,24.06,23,28.09,31.4a4.23,4.23,0,0,0,6.38,1.82h0S102.12,15.54,82,6.55C79.23,5.31,76.65,6.64,74.49,9.67Z" transform="translate(-10.8 -4.93)"/></g><path class="cls-16" d="M83.23,55.78c1.82-3.71,7-7.74,11.23-10.63,3.86-2.62,4.93-8.33,2.36-12.45A62.17,62.17,0,0,0,82.57,17.09c-2.34-1.84-5.62-.43-6.29,2.7A54.58,54.58,0,0,0,76,40.86a30.49,30.49,0,0,0,6.78,14.75" transform="translate(-10.8 -4.93)"/><path class="cls-16" d="M87.49,45a33.24,33.24,0,0,0,1.15,4.53,66.09,66.09,0,0,1,5.82-4.38c3.86-2.62,4.93-8.33,2.36-12.45a59,59,0,0,0-8.36-10.41,4.72,4.72,0,0,0-.67,1.64A54.58,54.58,0,0,0,87.49,45Z" transform="translate(-10.8 -4.93)"/><path class="cls-9" d="M169.17,99.26a8.1,8.1,0,0,1-5.11,1.87l-.53,0s.79.62,3,2.37l0,0s0,.08,0,.2a.41.41,0,0,1,0,.11c0,.13,0,.28,0,.46l0,.2,0,.27a20.54,20.54,0,0,1-.43,2.76v0a19.91,19.91,0,0,1-.64,2.18c-.19.52-.39,1-.59,1.41h0l-.3.18-.15.09c-.23.14-.47.28-.72.41l-.55.31a33.65,33.65,0,0,0-4.4,2.91h0l-1.23,1c-3.34,2.66-6.33,5.51-7.17,6.11A42.69,42.69,0,0,1,136.91,129a60.65,60.65,0,0,1-21.25,2.65h0a65.31,65.31,0,0,1-14.21-2.14h0a53.48,53.48,0,0,1-6.16-2.06c-3-1.92-6.68-4.51-11.69-8.06A62.1,62.1,0,0,1,78.32,115h0a81.9,81.9,0,0,1-8.69-9.85,12,12,0,0,1-2.44-5.4h0a.71.71,0,0,1,0-.15v-.23l3.1-2.09.09-.06h0l-.28,0h0l-.24,0a8.06,8.06,0,0,1-4.92-2.3c-1.52-1.68-1.32-3.83,1-5,4-2.06,7.54-9.33,8.57-13,.59-2.08,1.94-6.13,3-9.26C59.63,49.57,68.31.93,81,6.65c14.36,6.46,23.68,22.46,27.84,31.1A34.16,34.16,0,0,1,119.44,37a34.11,34.11,0,0,1,10.24,1.61c4.85-8.26,15.41-23.36,30.19-28.56,13-4.58,17.82,43.6-.78,60.47l-.36.32c.07.28.14.56.22.86.78,3.09,1.7,6.83,2.09,8.81a30.83,30.83,0,0,0,2.06,6.18,26.84,26.84,0,0,0,1.38,2.73,13.52,13.52,0,0,0,4.07,4.76C170.8,95.55,170.82,97.71,169.17,99.26Z" transform="translate(-10.8 -4.93)"/><g class="cls-17"><path class="cls-13" d="M159.67,14.89c-13.28,4.65-22,16.66-27.18,25a4.08,4.08,0,0,1-4.41,1.92,54.86,54.86,0,0,0-8.79-1.3,54.31,54.31,0,0,0-9.07.58,4.13,4.13,0,0,1-4.28-2.31C101.47,30,93.72,17.31,80.85,11.56c-6.76-3-12.38,9.18-13.49,24C67.46,18.67,73.55,3.3,81,6.65,95.4,13.06,104.72,29,108.88,37.54a34.38,34.38,0,0,1,10.57-.78,34.62,34.62,0,0,1,10.23,1.6c4.85-8.21,15.41-23.21,30.19-28.38,7.74-2.7,12.57,13.13,11.31,29.93C171.27,25.08,166.65,12.45,159.67,14.89Z" transform="translate(-10.8 -4.93)"/></g><path class="cls-18" d="M70.07,96.57l.31,0h0l-.12.07Z" transform="translate(-10.8 -4.93)"/><path class="cls-13" d="M166.52,103.55s0,.08,0,.2a.41.41,0,0,1,0,.11c0,.13,0,.28,0,.46l0,.2,0,.27a20.54,20.54,0,0,1-.43,2.76v0a19.91,19.91,0,0,1-.64,2.18c-.19.52-.39,1-.59,1.41h0l-.3.18-.15.09c-.23.14-.47.28-.72.41l-.55.31a33.65,33.65,0,0,0-4.4,2.91h0l-1.23,1c-3.34,2.66-6.33,5.51-7.17,6.11A42.69,42.69,0,0,1,136.91,129a60.65,60.65,0,0,1-21.25,2.65h0a65.31,65.31,0,0,1-14.21-2.14h0a53.48,53.48,0,0,1-6.16-2.06c-3-1.92-6.68-4.51-11.69-8.06A62.1,62.1,0,0,1,78.32,115h0a81.9,81.9,0,0,1-8.69-9.85,12,12,0,0,1-2.44-5.4h0a.71.71,0,0,1,0-.15v-.23l3.1-2.09.09-.06h0l-.28,0h0l-.24,0c.35-.12.71-.23,1.1-.33l.06,0c.41-.11.84-.22,1.29-.32,14.47-3.18,24.79,8.87,29,4.93,1.66-1.54,1.76-5,2-11.88.12-4-.3-6.45.37-6.68,1.56-.55,4.27,12.19,11.92,13.87a8.52,8.52,0,0,0,2.6.12c8.48-.92,12.8-13.87,14.09-13.18.57.31-.37,2.84-.8,6.75-.55,5-1.12,10.15.92,12.32,4.06,4.32,15.08-6.86,29.32-2.45.42.14.83.27,1.21.41l.12,0c.38.14.73.28,1.06.42l-.53,0s.79.62,3,2.37Z" transform="translate(-10.8 -4.93)"/><g class="cls-19"><path class="cls-10" d="M166.46,104.52l0,.27a20.54,20.54,0,0,1-.43,2.76v0a19.91,19.91,0,0,1-.64,2.18c-.19.52-.39,1-.59,1.41h0l-.3.18-.15.09c-.23.14-.47.28-.72.41l-.55.31a33.65,33.65,0,0,0-4.4,2.91h0l-1.23,1c-3.34,2.66-6.33,5.51-7.17,6.11-2.84,2.85-7.57,5.2-13.32,6.81a68.09,68.09,0,0,1-14.2,2.3,75.67,75.67,0,0,1-9.64,0,67.32,67.32,0,0,1-11.63-1.76h0q-2.62-.65-5.13-1.52l-.44-.16-.59-.38c-3-1.92-6.68-4.51-11.69-8.06A62.1,62.1,0,0,1,78.32,115h0a81.9,81.9,0,0,1-8.69-9.85,12,12,0,0,1-2.44-5.4l.78.55c.49.34,1,.67,1.39,1,1.23.92,2.32,1.79,3.3,2.62S74.27,105.31,75,106h0c1.19,1.12,2.22,2.17,3.2,3.2h0c1,1,1.86,1.93,2.83,2.87A39.46,39.46,0,0,0,85.71,116c.56.41,1.16.81,1.8,1.22h0a64.83,64.83,0,0,0,7.14,3.9c17.91,9.53,50.25,2.57,56.18-4.74a116.41,116.41,0,0,1,12.94-10.13l.15-.1c.88-.6,1.72-1.13,2.47-1.57Z" transform="translate(-10.8 -4.93)"/></g><g class="cls-5"><path class="cls-10" d="M133.24,108.74a17.32,17.32,0,0,1-.36,1.9c-1.25,4.85-4.62,7.07-9.09,6.3-5.72-1-7.06-4.36-7.34-6.27a9.89,9.89,0,0,1-7.94,5.63c-5.07.43-8.45-2.77-8.76-9h0l2.46.11a8.24,8.24,0,0,0,1,1.24,5.81,5.81,0,0,0,2,1.42,6.69,6.69,0,0,0,2.46.47,8.82,8.82,0,0,0,2.58-.32,6.47,6.47,0,0,0,3.45-2.33l2.39.1,1.26,0,2.28.1a6.38,6.38,0,0,0,1.15,1.37,6.55,6.55,0,0,0,2.17,1.29,9.54,9.54,0,0,0,2.56.51,6.18,6.18,0,0,0,4.69-1.46,8.72,8.72,0,0,0,1.12-1.21Z" transform="translate(-10.8 -4.93)"/></g><path class="cls-13" d="M127.74,104.61c-.53,4.07-2.93,6-6.24,5.42a6,6,0,0,1-4.8-5.3h-.07c-.29,1.24-1.4,4.56-5.21,4.88-3.34.29-5.58-1.82-5.78-5.92" transform="translate(-10.8 -4.93)"/><g class="cls-5"><path class="cls-10" d="M133.65,104.78c-.8,6.16-4.43,9.07-9.45,8.21-5.72-1-7-6.13-7.27-8h-.11c-.43,1.88-2.11,6.9-7.9,7.39-1,.08-3.76.3-5.73-1.6s-2.59-5.69-1.32-9.2a7.44,7.44,0,0,0,1.25,5.67,6.24,6.24,0,0,0,4.68,2.28,6.49,6.49,0,0,0,5.73-2,7.36,7.36,0,0,0,1.58-4.59l3.21,0c.06.35.82,4.78,4.62,6.58a7.61,7.61,0,0,0,6.56-.17A9,9,0,0,0,133.65,104.78Z" transform="translate(-10.8 -4.93)"/></g><path class="cls-10" d="M133.69,108.41a10.07,10.07,0,0,1-.81,2.23,9.14,9.14,0,0,1-.77,1.21,7.58,7.58,0,0,1-3,2.38,8.46,8.46,0,0,1-3.64.67H125l-.44-.06a8.67,8.67,0,0,1-.89-.13l-.89-.21-.87-.31a9.27,9.27,0,0,1-3.18-2.08,11.08,11.08,0,0,1-2-2.77,10.69,10.69,0,0,1-2.21,2.62,9.37,9.37,0,0,1-3.34,1.8l-.89.23-.9.13a6.77,6.77,0,0,1-.89.06,5.54,5.54,0,0,1-.91,0,8.74,8.74,0,0,1-3.6-1,7.57,7.57,0,0,1-2.91-2.6,8.44,8.44,0,0,1-1.28-3.3s0-.18,0-.31c-.31-2.53,1.79-5.64,2.12-5.47s-1,3.09-.22,4.82c.25.51.61,1.06.61,1.07a8.24,8.24,0,0,0,1,1.24,5.81,5.81,0,0,0,2,1.42,6.69,6.69,0,0,0,2.46.47,8.82,8.82,0,0,0,2.58-.32,6.47,6.47,0,0,0,3.45-2.33,6.79,6.79,0,0,0,.52-.76,9.27,9.27,0,0,0,1-2.6l.32-1.77a9.12,9.12,0,0,0,1.24.08,9,9,0,0,0,1.27-.11l.3,2a9.27,9.27,0,0,0,.81,2.7,6.17,6.17,0,0,0,.42.76,6.38,6.38,0,0,0,1.15,1.37,6.55,6.55,0,0,0,2.17,1.29,9.54,9.54,0,0,0,2.56.51,6.18,6.18,0,0,0,4.69-1.46,8.72,8.72,0,0,0,1.12-1.21,11.41,11.41,0,0,0,.66-1,11.68,11.68,0,0,0,1.14-4A9.78,9.78,0,0,1,133.69,108.41Z" transform="translate(-10.8 -4.93)"/><path class="cls-10" d="M172.07,42.77C173.3,32,172,20.84,168.79,14.33c-2.4-4.82-5.69-6.79-9.27-5.53-14.61,5.1-25.13,19.48-30.35,28.12a35,35,0,0,0-9.68-1.41,34.86,34.86,0,0,0-10,.63C105,27.07,95.66,11.83,81.48,5.5c-3.51-1.58-7,.17-9.78,4.9C68,16.71,65.86,27.78,66.26,38.61c.46,12.34,4,22.55,9.91,28.87-1.39,4.06-2.32,6.92-2.76,8.49-1.08,3.85-4.55,10.39-8,12.14a4.32,4.32,0,0,0-2.62,4.45c.28,2,2,3.72,4.48,4.63-.06.54-.1,1-.12,1.55v.12c0,.07,0,.17,0,.26v.18a2.18,2.18,0,0,0,0,.25v0a.92.92,0,0,0,0,.16,12,12,0,0,0,2.44,5.4A81.9,81.9,0,0,0,78.32,115h0a74.5,74.5,0,0,0,17,12.42l1,.54c5.08,2.6,12,5.86,21.25,6.07,7.6.17,13.26-1.79,17.9-3.45a69,69,0,0,0,22.85-13.79,28.72,28.72,0,0,0,5.29-4.92,13.76,13.76,0,0,0,.87-1.18,11.42,11.42,0,0,0,.89-1.59,7.84,7.84,0,0,0,.44-1.23c0-.15.11-.49.2-.94h0c.13-.67.28-1.55.39-2.33,0-.14,0-.28,0-.41s0-.19,0-.27l0-.21a.86.86,0,0,1,0-.16c0-.1,0-.2,0-.29a.45.45,0,0,0,0-.11c0-.12,0-.2,0-.2,0-.49,0-1,0-1.53,2.59-.7,4.41-2.25,4.84-4.26.34-1.56-.87-2.81-2.27-4.64-.66-.86-6.16-8.2-8.16-15.39a26.26,26.26,0,0,1-.92-6.26C168.61,63,171.26,49.93,172.07,42.77ZM168,94.66c.33.29,1.34,1.14,1.17,1.9-.25,1.19-2,2.5-5,2.7a1.39,1.39,0,0,0-1.16.84l-.09.25a1.09,1.09,0,0,0,0,.31,2.52,2.52,0,0,0,.55,1.34,7.24,7.24,0,0,1,.49,3.5,6.06,6.06,0,0,1-.15.74c-.68,2.55-3.09,4.28-7.12,7.2-9,6.53-8.52,6.24-8.92,6.47C139.12,125,128.93,131,116.05,130c0,0-11.87-1-27-11.62-.31-.21-.85-.6-1.56-1.13h0c-1.33-1-3.25-2.47-5.39-4.24l-1.08-.9a42.24,42.24,0,0,1-3.88-3.54L75,106h0l-2.32-2.71c-1.53-1.77-3.26-3.7-2.64-4.77a6.62,6.62,0,0,0,1-1.73.82.82,0,0,0,0-.31,1.45,1.45,0,0,0-.07-.26,1.4,1.4,0,0,0-1.09-.93c-2.89-.44-4.57-1.89-4.74-3.08-.13-.93.78-1.54,1.33-1.82C71.09,88,74.69,80,75.61,76.7c.46-1.6,1.49-4.76,3-9.12a1.32,1.32,0,0,0-.3-1.36C65.75,53.71,66.52,23.86,73.65,11.75,75,9.54,77,7.17,79.44,7.47a4.32,4.32,0,0,1,1.16.33C94.54,14,103.66,29.47,107.86,38.12a1.15,1.15,0,0,0,1.25.65,33.66,33.66,0,0,1,10.2-.77h.17a33,33,0,0,1,9.89,1.56,1.11,1.11,0,0,0,1.28-.53c4.88-8.25,15.21-22.85,29.58-27.87,3.15-1.1,5.81,3.44,6.53,4.35,1.63,2.09,2.56,4.72,3,11.17.45,7,.94,14.67-2.06,23.85a82,82,0,0,1-5.62,12.52c-1.52,2.9-2.91,5.24-3.93,6.89l-.35,1.52a27.08,27.08,0,0,0,.84,6.13C159.74,81.88,163.16,90.46,168,94.66Z" transform="translate(-10.8 -4.93)"/><path class="cls-10" d="M116.59,105.08a1.06,1.06,0,0,1-.89-1.13l.21-5.47a1,1,0,0,1,1-1,1.06,1.06,0,0,1,1,1.14l-.21,5.46a1,1,0,0,1-1,1Z" transform="translate(-10.8 -4.93)"/><path class="cls-10" d="M123.6,97.72c-.1,2.42-3.32,5.53-7.13,5.37s-6.77-3.54-6.67-6,3.19-2.49,7-2.33S123.69,95.3,123.6,97.72Z" transform="translate(-10.8 -4.93)"/><g class="cls-5"><path class="cls-13" d="M119.16,96.7c0,.43-1.13,1-2.47.91s-2.41-.69-2.4-1.12,1.11-.42,2.46-.36S119.18,96.27,119.16,96.7Z" transform="translate(-10.8 -4.93)"/></g><path class="cls-20" d="M95,44.52c-3.07,2.12-7.89,7.22-10.21,9.76a1.9,1.9,0,0,1-2.6.28,1.55,1.55,0,0,1-.33-.3c-2.75-3.1-8-11.54-6.58-30.14v-.23a11.09,11.09,0,0,1,2.16-6.24,2.86,2.86,0,0,1,4-.62A54.65,54.65,0,0,1,97.12,34.7,7.61,7.61,0,0,1,95,44.52Z" transform="translate(-10.8 -4.93)"/><g class="cls-19"><path class="cls-10" d="M95,44.52c-3.07,2.12-7.89,7.22-10.21,9.76a1.9,1.9,0,0,1-2.6.28c1.38-5,7.16-10.36,8.66-14.07,1.93-4.75-5.39-16.89-10-18.79-2.9-1.2-4.68.8-5.6,2.42v-.23a11.09,11.09,0,0,1,2.16-6.24,2.86,2.86,0,0,1,4-.62A54.65,54.65,0,0,1,97.12,34.7,7.61,7.61,0,0,1,95,44.52Z" transform="translate(-10.8 -4.93)"/></g><path class="cls-20" d="M143,47.22c2.94,2.32,7.44,7.75,9.61,10.44a1.92,1.92,0,0,0,2.58.46,2.19,2.19,0,0,0,.35-.27c2.93-2.91,8.61-11,8.34-29.63V28a11.19,11.19,0,0,0-1.79-6.38,2.87,2.87,0,0,0-3.92-.89,54,54,0,0,0-16.67,16.55A7.65,7.65,0,0,0,143,47.22Z" transform="translate(-10.8 -4.93)"/><g class="cls-19"><path class="cls-10" d="M143,47.22c2.94,2.32,7.44,7.75,9.61,10.44a1.92,1.92,0,0,0,2.58.46c-1.08-5.06-6.53-10.83-7.82-14.64-1.64-4.88,6.38-16.49,11.06-18.06,3-1,4.63,1.12,5.45,2.8V28a11.19,11.19,0,0,0-1.79-6.38,2.87,2.87,0,0,0-3.92-.89,54,54,0,0,0-16.67,16.55A7.65,7.65,0,0,0,143,47.22Z" transform="translate(-10.8 -4.93)"/></g><path class="cls-10" d="M83,56.18a3.08,3.08,0,0,1-1.94-1h0c-3.19-3.6-8.32-12.45-6.89-31.34a12.62,12.62,0,0,1,2.43-6.95A4,4,0,0,1,82.08,16a56.1,56.1,0,0,1,16,18.08,8.93,8.93,0,0,1-2.45,11.52c-3,2.09-8,7.4-10,9.58a3.06,3.06,0,0,1-2.3,1Zm-.28-2.78a.84.84,0,0,0,1.29,0c2.54-2.78,7.28-7.78,10.4-9.93a6.3,6.3,0,0,0,1.72-8.12A53.6,53.6,0,0,0,80.82,18.08a1.75,1.75,0,0,0-2.45.38A10,10,0,0,0,76.48,24c-1.41,18.58,3.9,26.75,6.25,29.4Z" transform="translate(-10.8 -4.93)"/><path class="cls-10" d="M133.16,83.37a19.64,19.64,0,0,0,.94,6.92,6.22,6.22,0,0,0,1.6,2.43A6.13,6.13,0,0,0,141,94a6,6,0,0,0,2.51-1.42A13.88,13.88,0,0,0,147,86.74v0a.48.48,0,0,1,.62-.32.53.53,0,0,1,.32.5,12.33,12.33,0,0,1-.74,3.94,11.32,11.32,0,0,1-2,3.56,8,8,0,0,1-3.43,2.41,7.48,7.48,0,0,1-2.08.38A8.8,8.8,0,0,1,137.6,97a7.63,7.63,0,0,1-3.76-2,8.22,8.22,0,0,1-2.15-3.85,12.54,12.54,0,0,1-.33-4.15,14.7,14.7,0,0,1,.86-3.9.48.48,0,0,1,.64-.28.52.52,0,0,1,.3.49Z" transform="translate(-10.8 -4.93)"/><path class="cls-10" d="M103.62,82.32a14.49,14.49,0,0,1,.16,4,12.36,12.36,0,0,1-1.06,4,7.84,7.84,0,0,1-2.8,3.33,7.33,7.33,0,0,1-4,1.15,8.94,8.94,0,0,1-2-.24,7.32,7.32,0,0,1-2-.81,8.19,8.19,0,0,1-2.94-3.08,11.5,11.5,0,0,1-1.33-3.9,12.39,12.39,0,0,1,0-4,.5.5,0,0,1,.57-.42.5.5,0,0,1,.39.44v0a14.28,14.28,0,0,0,2.37,6.42,6.16,6.16,0,0,0,2.21,1.92,5.63,5.63,0,0,0,2.74.57,5.38,5.38,0,0,0,2.66-.7,5.87,5.87,0,0,0,2-2,19.08,19.08,0,0,0,2.15-6.59v0a.48.48,0,0,1,1,0Z" transform="translate(-10.8 -4.93)"/><path class="cls-10" d="M153.68,59.19a3.11,3.11,0,0,1-2-1.17c-1.85-2.31-6.47-7.92-9.37-10.2a8.94,8.94,0,0,1-1.72-11.66,56.31,56.31,0,0,1,17.14-17,4,4,0,0,1,5.41,1.21,12.55,12.55,0,0,1,2,7.1c.23,18.94-5.45,27.44-8.86,30.83a3.09,3.09,0,0,1-2.36.92ZM160,21.07a1.72,1.72,0,0,0-1.15.26A53.61,53.61,0,0,0,142.44,37.6a6.28,6.28,0,0,0,1.18,8.2c3,2.35,7.4,7.64,9.76,10.58a.84.84,0,0,0,.61.33.87.87,0,0,0,.67-.26h0c2.52-2.5,8.34-10.32,8.12-28.95a10.06,10.06,0,0,0-1.53-5.64A1.82,1.82,0,0,0,160,21.07Z" transform="translate(-10.8 -4.93)"/><path class="cls-21" d="M101,61.53c-.11,3.34,9.48,7.4,18.22,7,7.66-.34,16.28-4.16,16.13-7.36s-9.89-5.89-17.65-5.71C110.52,55.65,101.11,58.26,101,61.53Z" transform="translate(-10.8 -4.93)"/><path class="cls-13" d="M118.31,45.7c-1.65,0-3.18,7.09-3.17,13s1.61,13.14,3.27,13.14,3.35-7,3.31-13.14S120,45.68,118.31,45.7Z" transform="translate(-10.8 -4.93)"/><ellipse class="cls-13" cx="151.99" cy="91.92" rx="1.34" ry="1.46"/><ellipse class="cls-13" cx="60.93" cy="86.52" rx="1.34" ry="1.46"/><ellipse class="cls-13" cx="143.72" cy="87.25" rx="0.67" ry="0.73"/></svg>